Coordinates
version=1
nRows=5
nColumns=40
inDegrees=yes

Units are S.I. units (second, meters, Newtons, ...)
Angles are in degrees.

endheader
time	pelvis_tilt	pelvis_list	pelvis_rotation	pelvis_tx	pelvis_ty	pelvis_tz	hip_flexion_r	hip_adduction_r	hip_rotation_r	knee_angle_r	knee_angle_r_beta	ankle_angle_r	subtalar_angle_r	mtp_angle_r	hip_flexion_l	hip_adduction_l	hip_rotation_l	knee_angle_l	knee_angle_l_beta	ankle_angle_l	subtalar_angle_l	mtp_angle_l	lumbar_extension	lumbar_bending	lumbar_rotation	arm_flex_r	arm_add_r	arm_rot_r	elbow_flex_r	pro_sup_r	wrist_flex_r	wrist_dev_r	arm_flex_l	arm_add_l	arm_rot_l	elbow_flex_l	pro_sup_l	wrist_flex_l	wrist_dev_l
      2.00000000	      1.06875331	     10.08447692	     -5.59203093	      0.41469845	      0.95334785	      1.41046831	      8.05368157	    -25.09403869	    -12.85161361	    -56.75720809	     -0.99060016	     -3.93732769	    -15.40841600	      9.27304235	      8.58079281	    -11.52505209	     15.13541452	    -14.07547665	     -0.24566341	      2.08873440	      9.83819188	     -0.42791527	     -1.19450611	    -11.09372462	      6.08119178	      3.76417987	     -9.78995261	    -10.62626293	     21.08662999	     89.95437384	      0.00000000	      0.00000000	     -1.00296029	     10.70751174	      8.78097502	     15.07006581	     89.95437384	      0.00000000	      0.00000000
      2.01000000	      1.09723885	      9.82308038	     -5.71753614	      0.42144483	      0.95422292	      1.40876989	      9.24790483	    -24.81223941	    -12.73474497	    -57.16621800	     -0.99773872	     -2.64244841	    -16.35711617	      9.33663585	      7.76991635	    -11.47751365	     15.14730911	    -13.53870842	     -0.23629504	      2.47267717	      9.60723406	     -0.51925395	     -1.35920400	    -10.73877877	      5.83511392	      3.78064209	     -9.86242634	    -10.44804383	     20.58856646	     89.95437384	      0.00000000	      0.00000000	     -0.08361718	     10.62202770	      8.72026968	     15.73411443	     89.95437384	      0.00000000	      0.00000000
      2.02000000	      1.07565438	      9.55434709	     -5.66874889	      0.42818481	      0.95499930	      1.40690886	     10.40556720	    -24.64072878	    -13.02546390	    -57.41880402	     -1.00214718	     -2.04638563	    -16.72354048	      9.27437273	      7.11930192	    -11.37061698	     15.44992689	    -13.21117580	     -0.23057852	      2.73078709	      9.48303211	     -0.55760808	     -1.51385256	    -10.37396260	      5.40849840	      3.63747747	     -9.91234537	    -10.33402494	     20.39491249	     89.95437384	      0.00000000	      0.00000000	      0.84537319	     10.57830007	      8.62356899	     16.35049315	     89.95437384	      0.00000000	      0.00000000
      2.03000000	      1.04293083	      9.29338773	     -5.66540393	      0.43461585	      0.95571805	      1.40543313	     11.58817578	    -24.25328170	    -13.01845403	    -57.46565285	     -1.00296485	     -1.15156108	    -17.33883537	      9.27253103	      6.42319499	    -11.28152976	     15.49247132	    -12.71966379	     -0.22200001	      2.95989944	      9.20047308	     -0.61204973	     -1.70175825	    -10.06189307	      5.08573875	      3.57134852	     -9.96229418	    -10.18946799	     20.09719029	     89.95437384	      0.00000000	      0.00000000	      1.73937503	     10.59086767	      8.54130606	     17.13941076	     89.95437384	      0.00000000	      0.00000000
      2.04000000	      0.99417880	      9.01420706	     -5.61765257	      0.44090164	      0.95638698	      1.40400481	     12.71852994	    -23.77706409	    -12.96821824	    -57.30110449	     -1.00009294	     -0.26096918	    -17.63517920	      9.31671238	      5.78808473	    -11.15243903	     15.46207386	    -12.29398276	     -0.21457048	      3.12232155	      8.85709456	     -0.66185259	     -1.87976294	     -9.71473559	      4.69108382	      3.52123448	    -10.00884264	    -10.05076744	     19.86462873	     89.95437384	      0.00000000	      0.00000000	      2.60329993	     10.62968901	      8.33768835	     18.00578604	     89.95437384	      0.00000000	      0.00000000
